<svg xmlns="http://www.w3.org/2000/svg" viewBox="0 0 200 200" width="200" height="200">
  <defs>
    <linearGradient id="bg" x1="0%" y1="0%" x2="100%" y2="100%">
      <stop offset="0%" style="stop-color:#4CAF50;stop-opacity:1" />
      <stop offset="100%" style="stop-color:#2E7D32;stop-opacity:1" />
    </linearGradient>
    <linearGradient id="broom" x1="0%" y1="0%" x2="100%" y2="100%">
      <stop offset="0%" style="stop-color:#8D6E63;stop-opacity:1" />
      <stop offset="100%" style="stop-color:#5D4037;stop-opacity:1" />
    </linearGradient>
  </defs>
  
  <!-- Background circle -->
  <circle cx="100" cy="100" r="90" fill="url(#bg)" stroke="#1B5E20" stroke-width="4"/>
  
  <!-- Broom handle -->
  <rect x="95" y="40" width="10" height="80" fill="url(#broom)" rx="5"/>
  
  <!-- Broom bristles -->
  <g fill="#FFC107" stroke="#FF8F00" stroke-width="2">
    <path d="M85 120 L85 140 L90 145 L85 150 L90 155 L85 160 L90 165 L85 170" stroke-linecap="round"/>
    <path d="M95 120 L95 145 L100 150 L95 155 L100 160 L95 165 L100 170 L95 175" stroke-linecap="round"/>
    <path d="M105 120 L105 145 L110 150 L105 155 L110 160 L105 165 L110 170 L105 175" stroke-linecap="round"/>
    <path d="M115 120 L115 140 L110 145 L115 150 L110 155 L115 160 L110 165 L115 170" stroke-linecap="round"/>
  </g>
  
  <!-- Sparkle effects -->
  <g fill="#FFFFFF" opacity="0.8">
    <circle cx="60" cy="60" r="3"/>
    <circle cx="140" cy="70" r="2"/>
    <circle cx="70" cy="140" r="2"/>
    <circle cx="130" cy="130" r="3"/>
    <circle cx="50" cy="100" r="2"/>
    <circle cx="150" cy="110" r="2"/>
  </g>
  
  <!-- Entity cleaning symbols -->
  <g fill="#E8F5E8" opacity="0.6">
    <rect x="40" y="80" width="12" height="8" rx="2"/>
    <rect x="35" y="95" width="15" height="6" rx="2"/>
    <rect x="148" y="85" width="18" height="7" rx="2"/>
    <rect x="145" y="100" width="20" height="9" rx="2"/>
  </g>
  
  <!-- Delete/clean icons -->
  <g stroke="#FFFFFF" stroke-width="2" opacity="0.7">
    <path d="M42 82 L50 90 M50 82 L42 90"/>
    <path d="M37 97 L48 101 M48 97 L37 101"/>
    <path d="M152 87 L162 93 M162 87 L152 93"/>
    <path d="M149 102 L161 109 M161 102 L149 109"/>
  </g>
</svg>
